<svg width="1166" height="198" viewBox="0 0 1166 198" fill="none" xmlns="http://www.w3.org/2000/svg">
<line x1="181.608" y1="175.5" x2="1150.61" y2="176.5" stroke="url(#paint0_linear_15_49)" stroke-opacity="0.9" stroke-width="3" stroke-linecap="round"/>
<g filter="url(#filter0_f_15_49)">
<g filter="url(#filter1_d_15_49)">
<path d="M246.531 43.0819H269.105L247.942 142.898C244.592 158.417 234.716 166.705 219.02 166.705H196.8C177.225 166.705 168.76 156.124 172.992 136.549L175.285 125.791H197.682L194.684 139.547C193.625 144.485 195.389 146.954 200.68 146.954H217.433C222.018 146.954 224.664 144.661 225.722 140.076L246.531 43.0819ZM260.225 166L286.325 43.0819H363.039L358.806 62.4807H304.666L298.317 92.9898H347.696L343.816 112.212H294.085L286.854 146.601H342.229L338.173 166H260.225ZM434.251 117.327H382.932L372.704 166H350.131L376.231 43.0819H454.708L450.476 62.4807H394.572L387.165 97.9277H438.484L434.251 117.327ZM522.779 117.327H471.46L461.232 166H438.659L464.759 43.0819H543.236L539.003 62.4807H483.099L475.693 97.9277H527.011L522.779 117.327Z" fill="black" fill-opacity="0.8" shape-rendering="crispEdges"/>
</g>
<g filter="url(#filter2_d_15_49)">
<path d="M577.962 164.297H557.081L554.874 43.7638H577.283L574.906 125.93C574.736 129.156 574.057 133.061 573.548 136.286C574.397 133.061 575.076 129.156 576.604 125.93L609.029 43.7638H631.268L577.962 164.297ZM659.095 64.8148L650.947 103.521H684.051L676.581 124.572H646.363L642.458 143.246H683.881L676.411 164.297H617.163L642.628 43.7638H704.762L697.632 64.8148H659.095ZM712.894 164.297H692.013L717.477 43.7638H738.358L712.894 164.297ZM761.124 143.246H775.894C780.138 143.246 782.685 140.36 784.212 133.74L785.571 126.949H806.621L803.905 139.851C800.51 156.149 792.361 164.297 778.95 164.297H755.183C737.527 164.297 731.076 156.149 734.471 139.851L736.848 128.477H737.018L749.92 68.2101C753.315 51.9126 761.124 43.7638 774.875 43.7638H798.473C816.128 43.7638 822.579 51.9126 819.184 68.2101L816.468 80.7727H795.417L796.775 74.3216C798.133 67.7008 796.775 64.8148 792.531 64.8148H777.761C773.517 64.8148 770.801 67.8706 769.443 74.3216L756.88 133.74C755.352 140.36 757.05 143.246 761.124 143.246ZM859.376 143.246C863.62 143.246 866.167 140.191 867.525 133.57L886.539 43.7638H907.589L886.878 141.209C883.653 156.658 876.353 164.297 863.62 164.297H836.797C820.16 164.297 814.049 156.658 817.274 141.209L837.986 43.7638H859.037L840.023 133.57C838.665 140.191 840.023 143.246 844.267 143.246H859.376ZM945.333 43.7638L924.282 143.246H962.14L954.84 164.297H898.987L924.452 43.7638H945.333ZM1017.77 43.7638H1038.48L1044.93 164.297H1023.03L1022.52 143.756H991.288L982.29 164.297H960.56L1017.77 43.7638ZM1021.51 76.3588L1000.79 122.535H1022.19L1021.51 76.3588ZM1054.49 164.297L1079.95 43.7638H1124.09C1140.9 43.7638 1147.01 51.4033 1143.62 66.6822L1135.98 101.314C1133.09 115.575 1126.47 123.044 1115.6 124.063L1128.85 164.297H1104.91L1091.84 124.233H1083.86L1075.37 164.297H1054.49ZM1096.42 64.8148L1088.27 103.182H1108.64C1112.72 103.182 1115.43 100.296 1116.79 93.6749L1120.87 74.3216C1122.22 67.8706 1120.87 64.8148 1116.79 64.8148H1096.42Z" fill="black" fill-opacity="0.8" shape-rendering="crispEdges"/>
</g>
</g>
<g filter="url(#filter3_d_15_49)">
<mask id="path-4-outside-1_15_49" maskUnits="userSpaceOnUse" x="173.108" y="41" width="377" height="127" fill="black">
<rect fill="white" x="173.108" y="41" width="377" height="127"/>
<path d="M251.531 43.0819H274.105L252.942 142.898C249.592 158.417 239.716 166.705 224.02 166.705H201.8C182.225 166.705 173.76 156.124 177.992 136.549L180.285 125.791H202.682L199.684 139.547C198.625 144.485 200.389 146.954 205.68 146.954H222.433C227.018 146.954 229.664 144.661 230.722 140.076L251.531 43.0819ZM265.225 166L291.325 43.0819H368.039L363.806 62.4807H309.666L303.317 92.9898H352.696L348.816 112.212H299.085L291.854 146.601H347.229L343.173 166H265.225ZM439.251 117.327H387.932L377.704 166H355.131L381.231 43.0819H459.708L455.476 62.4807H399.572L392.165 97.9277H443.484L439.251 117.327ZM527.779 117.327H476.46L466.232 166H443.659L469.759 43.0819H548.236L544.003 62.4807H488.099L480.693 97.9277H532.011L527.779 117.327Z"/>
</mask>
<path d="M251.531 43.0819H274.105L252.942 142.898C249.592 158.417 239.716 166.705 224.02 166.705H201.8C182.225 166.705 173.76 156.124 177.992 136.549L180.285 125.791H202.682L199.684 139.547C198.625 144.485 200.389 146.954 205.68 146.954H222.433C227.018 146.954 229.664 144.661 230.722 140.076L251.531 43.0819ZM265.225 166L291.325 43.0819H368.039L363.806 62.4807H309.666L303.317 92.9898H352.696L348.816 112.212H299.085L291.854 146.601H347.229L343.173 166H265.225ZM439.251 117.327H387.932L377.704 166H355.131L381.231 43.0819H459.708L455.476 62.4807H399.572L392.165 97.9277H443.484L439.251 117.327ZM527.779 117.327H476.46L466.232 166H443.659L469.759 43.0819H548.236L544.003 62.4807H488.099L480.693 97.9277H532.011L527.779 117.327Z" fill="url(#paint1_linear_15_49)"/>
<path d="M251.531 43.0819V41.9591H250.624L250.434 42.8463L251.531 43.0819ZM274.105 43.0819L275.203 43.3147L275.49 41.9591H274.105V43.0819ZM252.942 142.898L254.04 143.135L254.041 143.131L252.942 142.898ZM177.992 136.549L179.09 136.786L179.09 136.783L177.992 136.549ZM180.285 125.791V124.669H179.376L179.187 125.557L180.285 125.791ZM202.682 125.791L203.779 126.031L204.075 124.669H202.682V125.791ZM199.684 139.547L198.587 139.308L198.586 139.312L199.684 139.547ZM230.722 140.076L231.816 140.329L231.818 140.32L231.82 140.312L230.722 140.076ZM251.531 43.0819V44.2047H274.105V43.0819V41.9591H251.531V43.0819ZM274.105 43.0819L273.006 42.849L251.844 142.665L252.942 142.898L254.041 143.131L275.203 43.3147L274.105 43.0819ZM252.942 142.898L251.845 142.661C250.209 150.239 247.005 155.942 242.395 159.756C237.788 163.567 231.667 165.583 224.02 165.583V166.705V167.828C232.07 167.828 238.734 165.699 243.826 161.486C248.916 157.276 252.325 151.076 254.04 143.135L252.942 142.898ZM224.02 166.705V165.583H201.8V166.705V167.828H224.02V166.705ZM201.8 166.705V165.583C192.185 165.583 185.582 162.984 181.848 158.271C178.11 153.552 177.008 146.414 179.09 136.786L177.992 136.549L176.895 136.312C174.744 146.259 175.758 154.199 180.088 159.665C184.422 165.136 191.839 167.828 201.8 167.828V166.705ZM177.992 136.549L179.09 136.783L181.383 126.026L180.285 125.791L179.187 125.557L176.894 136.315L177.992 136.549ZM180.285 125.791V126.914H202.682V125.791V124.669H180.285V125.791ZM202.682 125.791L201.585 125.552L198.587 139.308L199.684 139.547L200.781 139.786L203.779 126.031L202.682 125.791ZM199.684 139.547L198.586 139.312C198.034 141.887 198.135 144.163 199.418 145.796C200.708 147.438 202.913 148.077 205.68 148.077V146.954V145.831C203.156 145.831 201.833 145.235 201.184 144.408C200.527 143.573 200.275 142.145 200.781 139.782L199.684 139.547ZM205.68 146.954V148.077H222.433V146.954V145.831H205.68V146.954ZM222.433 146.954V148.077C224.916 148.077 227.003 147.453 228.622 146.095C230.232 144.744 231.251 142.775 231.816 140.329L230.722 140.076L229.628 139.824C229.134 141.963 228.301 143.432 227.179 144.374C226.064 145.309 224.536 145.831 222.433 145.831V146.954ZM230.722 140.076L231.82 140.312L252.629 43.3174L251.531 43.0819L250.434 42.8463L229.624 139.841L230.722 140.076ZM265.225 166L264.127 165.767L263.839 167.123H265.225V166ZM291.325 43.0819V41.9591H290.416L290.227 42.8487L291.325 43.0819ZM368.039 43.0819L369.136 43.3212L369.433 41.9591H368.039V43.0819ZM363.806 62.4807V63.6035H364.711L364.903 62.7201L363.806 62.4807ZM309.666 62.4807V61.3579H308.753L308.567 62.252L309.666 62.4807ZM303.317 92.9898L302.218 92.7611L301.937 94.1126H303.317V92.9898ZM352.696 92.9898L353.797 93.2119L354.068 91.867H352.696V92.9898ZM348.816 112.212V113.335H349.735L349.917 112.434L348.816 112.212ZM299.085 112.212V111.089H298.173L297.986 111.981L299.085 112.212ZM291.854 146.601L290.756 146.37L290.471 147.724H291.854V146.601ZM347.229 146.601L348.328 146.831L348.611 145.478H347.229V146.601ZM343.173 166V167.123H344.085L344.272 166.23L343.173 166ZM265.225 166L266.323 166.233L292.424 43.3151L291.325 43.0819L290.227 42.8487L264.127 165.767L265.225 166ZM291.325 43.0819V44.2047H368.039V43.0819V41.9591H291.325V43.0819ZM368.039 43.0819L366.942 42.8425L362.709 62.2414L363.806 62.4807L364.903 62.7201L369.136 43.3212L368.039 43.0819ZM363.806 62.4807V61.3579H309.666V62.4807V63.6035H363.806V62.4807ZM309.666 62.4807L308.567 62.252L302.218 92.7611L303.317 92.9898L304.416 93.2186L310.765 62.7095L309.666 62.4807ZM303.317 92.9898V94.1126H352.696V92.9898V91.867H303.317V92.9898ZM352.696 92.9898L351.595 92.7677L347.716 111.99L348.816 112.212L349.917 112.434L353.797 93.2119L352.696 92.9898ZM348.816 112.212V111.089H299.085V112.212V113.335H348.816V112.212ZM299.085 112.212L297.986 111.981L290.756 146.37L291.854 146.601L292.953 146.832L300.184 112.443L299.085 112.212ZM291.854 146.601V147.724H347.229V146.601V145.478H291.854V146.601ZM347.229 146.601L346.13 146.371L342.074 165.77L343.173 166L344.272 166.23L348.328 146.831L347.229 146.601ZM343.173 166V164.877H265.225V166V167.123H343.173V166ZM439.251 117.327V118.449H440.155L440.348 117.566L439.251 117.327ZM387.932 117.327V116.204H387.021L386.833 117.096L387.932 117.327ZM377.704 166V167.123H378.615L378.803 166.231L377.704 166ZM355.131 166L354.032 165.767L353.744 167.123H355.131V166ZM381.231 43.0819V41.9591H380.321L380.133 42.8487L381.231 43.0819ZM459.708 43.0819L460.805 43.3212L461.102 41.9591H459.708V43.0819ZM455.476 62.4807V63.6035H456.38L456.573 62.7201L455.476 62.4807ZM399.572 62.4807V61.3579H398.659L398.473 62.2511L399.572 62.4807ZM392.165 97.9277L391.066 97.698L390.783 99.0505H392.165V97.9277ZM443.484 97.9277L444.581 98.167L444.878 96.8049H443.484V97.9277ZM439.251 117.327V116.204H387.932V117.327V118.449H439.251V117.327ZM387.932 117.327L386.833 117.096L376.605 165.769L377.704 166L378.803 166.231L389.031 117.557L387.932 117.327ZM377.704 166V164.877H355.131V166V167.123H377.704V166ZM355.131 166L356.229 166.233L382.329 43.3151L381.231 43.0819L380.133 42.8487L354.032 165.767L355.131 166ZM381.231 43.0819V44.2047H459.708V43.0819V41.9591H381.231V43.0819ZM459.708 43.0819L458.611 42.8425L454.379 62.2414L455.476 62.4807L456.573 62.7201L460.805 43.3212L459.708 43.0819ZM455.476 62.4807V61.3579H399.572V62.4807V63.6035H455.476V62.4807ZM399.572 62.4807L398.473 62.2511L391.066 97.698L392.165 97.9277L393.264 98.1573L400.671 62.7104L399.572 62.4807ZM392.165 97.9277V99.0505H443.484V97.9277V96.8049H392.165V97.9277ZM443.484 97.9277L442.387 97.6883L438.154 117.087L439.251 117.327L440.348 117.566L444.581 98.167L443.484 97.9277ZM527.779 117.327V118.449H528.683L528.876 117.566L527.779 117.327ZM476.46 117.327V116.204H475.549L475.361 117.096L476.46 117.327ZM466.232 166V167.123H467.143L467.331 166.231L466.232 166ZM443.659 166L442.56 165.767L442.272 167.123H443.659V166ZM469.759 43.0819V41.9591H468.849L468.66 42.8487L469.759 43.0819ZM548.236 43.0819L549.333 43.3212L549.63 41.9591H548.236V43.0819ZM544.003 62.4807V63.6035H544.908L545.1 62.7201L544.003 62.4807ZM488.099 62.4807V61.3579H487.187L487 62.2511L488.099 62.4807ZM480.693 97.9277L479.594 97.698L479.311 99.0505H480.693V97.9277ZM532.011 97.9277L533.108 98.167L533.406 96.8049H532.011V97.9277ZM527.779 117.327V116.204H476.46V117.327V118.449H527.779V117.327ZM476.46 117.327L475.361 117.096L465.133 165.769L466.232 166L467.331 166.231L477.559 117.557L476.46 117.327ZM466.232 166V164.877H443.659V166V167.123H466.232V166ZM443.659 166L444.757 166.233L470.857 43.3151L469.759 43.0819L468.66 42.8487L442.56 165.767L443.659 166ZM469.759 43.0819V44.2047H548.236V43.0819V41.9591H469.759V43.0819ZM548.236 43.0819L547.139 42.8425L542.906 62.2414L544.003 62.4807L545.1 62.7201L549.333 43.3212L548.236 43.0819ZM544.003 62.4807V61.3579H488.099V62.4807V63.6035H544.003V62.4807ZM488.099 62.4807L487 62.2511L479.594 97.698L480.693 97.9277L481.792 98.1573L489.199 62.7104L488.099 62.4807ZM480.693 97.9277V99.0505H532.011V97.9277V96.8049H480.693V97.9277ZM532.011 97.9277L530.914 97.6883L526.682 117.087L527.779 117.327L528.876 117.566L533.108 98.167L532.011 97.9277Z" fill="#F7F7F7" mask="url(#path-4-outside-1_15_49)"/>
</g>
<g filter="url(#filter4_d_15_49)">
<mask id="path-6-outside-2_15_49" maskUnits="userSpaceOnUse" x="557.502" y="41" width="595" height="126" fill="black">
<rect fill="white" x="557.502" y="41" width="595" height="126"/>
<path d="M582.962 164H562.081L559.874 43.4665H582.283L579.906 125.633C579.736 128.859 579.057 132.763 578.548 135.989C579.397 132.763 580.076 128.859 581.604 125.633L614.029 43.4665H636.268L582.962 164ZM664.095 64.5174L655.947 103.224H689.051L681.581 124.275H651.363L647.458 142.949H688.881L681.411 164H622.163L647.628 43.4665H709.762L702.632 64.5174H664.095ZM717.894 164H697.013L722.477 43.4665H743.358L717.894 164ZM766.124 142.949H780.894C785.138 142.949 787.685 140.063 789.212 133.442L790.571 126.652H811.621L808.905 139.554C805.51 155.851 797.361 164 783.95 164H760.183C742.527 164 736.076 155.851 739.471 139.554L741.848 128.179H742.018L754.92 67.9127C758.315 51.6152 766.124 43.4665 779.875 43.4665H803.473C821.128 43.4665 827.579 51.6152 824.184 67.9127L821.468 80.4754H800.417L801.775 74.0243C803.133 67.4034 801.775 64.5174 797.531 64.5174H782.761C778.517 64.5174 775.801 67.5732 774.443 74.0243L761.88 133.442C760.352 140.063 762.05 142.949 766.124 142.949ZM864.376 142.949C868.62 142.949 871.167 139.893 872.525 133.272L891.539 43.4665H912.589L891.878 140.912C888.653 156.361 881.353 164 868.62 164H841.797C825.16 164 819.049 156.361 822.274 140.912L842.986 43.4665H864.037L845.023 133.272C843.665 139.893 845.023 142.949 849.267 142.949H864.376ZM950.333 43.4665L929.282 142.949H967.14L959.84 164H903.987L929.452 43.4665H950.333ZM1022.77 43.4665H1043.48L1049.93 164H1028.03L1027.52 143.458H996.288L987.29 164H965.56L1022.77 43.4665ZM1026.51 76.0615L1005.79 122.238H1027.19L1026.51 76.0615ZM1059.49 164L1084.95 43.4665H1129.09C1145.9 43.4665 1152.01 51.1059 1148.62 66.3848L1140.98 101.017C1138.09 115.277 1131.47 122.747 1120.6 123.766L1133.85 164H1109.91L1096.84 123.935H1088.86L1080.37 164H1059.49ZM1101.42 64.5174L1093.27 102.884H1113.64C1117.72 102.884 1120.43 99.9984 1121.79 93.3775L1125.87 74.0243C1127.22 67.5732 1125.87 64.5174 1121.79 64.5174H1101.42Z"/>
</mask>
<path d="M582.962 164H562.081L559.874 43.4665H582.283L579.906 125.633C579.736 128.859 579.057 132.763 578.548 135.989C579.397 132.763 580.076 128.859 581.604 125.633L614.029 43.4665H636.268L582.962 164ZM664.095 64.5174L655.947 103.224H689.051L681.581 124.275H651.363L647.458 142.949H688.881L681.411 164H622.163L647.628 43.4665H709.762L702.632 64.5174H664.095ZM717.894 164H697.013L722.477 43.4665H743.358L717.894 164ZM766.124 142.949H780.894C785.138 142.949 787.685 140.063 789.212 133.442L790.571 126.652H811.621L808.905 139.554C805.51 155.851 797.361 164 783.95 164H760.183C742.527 164 736.076 155.851 739.471 139.554L741.848 128.179H742.018L754.92 67.9127C758.315 51.6152 766.124 43.4665 779.875 43.4665H803.473C821.128 43.4665 827.579 51.6152 824.184 67.9127L821.468 80.4754H800.417L801.775 74.0243C803.133 67.4034 801.775 64.5174 797.531 64.5174H782.761C778.517 64.5174 775.801 67.5732 774.443 74.0243L761.88 133.442C760.352 140.063 762.05 142.949 766.124 142.949ZM864.376 142.949C868.62 142.949 871.167 139.893 872.525 133.272L891.539 43.4665H912.589L891.878 140.912C888.653 156.361 881.353 164 868.62 164H841.797C825.16 164 819.049 156.361 822.274 140.912L842.986 43.4665H864.037L845.023 133.272C843.665 139.893 845.023 142.949 849.267 142.949H864.376ZM950.333 43.4665L929.282 142.949H967.14L959.84 164H903.987L929.452 43.4665H950.333ZM1022.77 43.4665H1043.48L1049.93 164H1028.03L1027.52 143.458H996.288L987.29 164H965.56L1022.77 43.4665ZM1026.51 76.0615L1005.79 122.238H1027.19L1026.51 76.0615ZM1059.49 164L1084.95 43.4665H1129.09C1145.9 43.4665 1152.01 51.1059 1148.62 66.3848L1140.98 101.017C1138.09 115.277 1131.47 122.747 1120.6 123.766L1133.85 164H1109.91L1096.84 123.935H1088.86L1080.37 164H1059.49ZM1101.42 64.5174L1093.27 102.884H1113.64C1117.72 102.884 1120.43 99.9984 1121.79 93.3775L1125.87 74.0243C1127.22 67.5732 1125.87 64.5174 1121.79 64.5174H1101.42Z" fill="url(#paint2_linear_15_49)"/>
<path d="M582.962 164V166.114H584.338L584.895 164.855L582.962 164ZM562.081 164L559.968 164.039L560.006 166.114H562.081V164ZM559.874 43.4665V41.3529H557.721L557.761 43.5052L559.874 43.4665ZM582.283 43.4665L584.396 43.5276L584.458 41.3529H582.283V43.4665ZM579.906 125.633L582.017 125.744L582.018 125.719L582.019 125.694L579.906 125.633ZM578.548 135.989L576.46 135.659L580.592 136.527L578.548 135.989ZM581.604 125.633L583.514 126.538L583.544 126.474L583.57 126.409L581.604 125.633ZM614.029 43.4665V41.3529H612.591L612.063 42.6906L614.029 43.4665ZM636.268 43.4665L638.201 44.3214L639.514 41.3529H636.268V43.4665ZM582.962 164V161.886H562.081V164V166.114H582.962V164ZM562.081 164L564.194 163.961L561.987 43.4278L559.874 43.4665L557.761 43.5052L559.968 164.039L562.081 164ZM559.874 43.4665V45.5801H582.283V43.4665V41.3529H559.874V43.4665ZM582.283 43.4665L580.17 43.4054L577.793 125.572L579.906 125.633L582.019 125.694L584.396 43.5276L582.283 43.4665ZM579.906 125.633L577.795 125.522C577.633 128.607 576.98 132.365 576.46 135.659L578.548 135.989L580.636 136.318C581.134 133.162 581.84 129.11 582.017 125.744L579.906 125.633ZM578.548 135.989L580.592 136.527C581.509 133.042 582.098 129.527 583.514 126.538L581.604 125.633L579.694 124.728C578.054 128.19 577.285 132.485 576.504 135.451L578.548 135.989ZM581.604 125.633L583.57 126.409L615.995 44.2423L614.029 43.4665L612.063 42.6906L579.638 124.857L581.604 125.633ZM614.029 43.4665V45.5801H636.268V43.4665V41.3529H614.029V43.4665ZM636.268 43.4665L634.335 42.6116L581.029 163.145L582.962 164L584.895 164.855L638.201 44.3214L636.268 43.4665ZM664.095 64.5174V62.4038H662.38L662.027 64.082L664.095 64.5174ZM655.947 103.224L653.878 102.789L653.342 105.338H655.947V103.224ZM689.051 103.224L691.043 103.931L692.043 101.11H689.051V103.224ZM681.581 124.275V126.388H683.074L683.573 124.982L681.581 124.275ZM651.363 124.275V122.161H649.645L649.294 123.842L651.363 124.275ZM647.458 142.949L645.389 142.516L644.857 145.063H647.458V142.949ZM688.881 142.949L690.873 143.656L691.874 140.835H688.881V142.949ZM681.411 164V166.114H682.904L683.403 164.707L681.411 164ZM622.163 164L620.095 163.563L619.556 166.114H622.163V164ZM647.628 43.4665V41.3529H645.914L645.56 43.0296L647.628 43.4665ZM709.762 43.4665L711.764 44.1445L712.71 41.3529H709.762V43.4665ZM702.632 64.5174V66.631H704.148L704.634 65.1955L702.632 64.5174ZM664.095 64.5174L662.027 64.082L653.878 102.789L655.947 103.224L658.015 103.659L666.163 64.9528L664.095 64.5174ZM655.947 103.224V105.338H689.051V103.224V101.11H655.947V103.224ZM689.051 103.224L687.059 102.517L679.589 123.568L681.581 124.275L683.573 124.982L691.043 103.931L689.051 103.224ZM681.581 124.275V122.161H651.363V124.275V126.388H681.581V124.275ZM651.363 124.275L649.294 123.842L645.389 142.516L647.458 142.949L649.527 143.382L653.432 124.707L651.363 124.275ZM647.458 142.949V145.063H688.881V142.949V140.835H647.458V142.949ZM688.881 142.949L686.889 142.242L679.419 163.293L681.411 164L683.403 164.707L690.873 143.656L688.881 142.949ZM681.411 164V161.886H622.163V164V166.114H681.411V164ZM622.163 164L624.231 164.437L649.696 43.9034L647.628 43.4665L645.56 43.0296L620.095 163.563L622.163 164ZM647.628 43.4665V45.5801H709.762V43.4665V41.3529H647.628V43.4665ZM709.762 43.4665L707.76 42.7884L700.63 63.8394L702.632 64.5174L704.634 65.1955L711.764 44.1445L709.762 43.4665ZM702.632 64.5174V62.4038H664.095V64.5174V66.631H702.632V64.5174ZM717.894 164V166.114H719.607L719.962 164.437L717.894 164ZM697.013 164L694.945 163.563L694.406 166.114H697.013V164ZM722.477 43.4665V41.3529H720.764L720.409 43.0296L722.477 43.4665ZM743.358 43.4665L745.426 43.9034L745.965 41.3529H743.358V43.4665ZM717.894 164V161.886H697.013V164V166.114H717.894V164ZM697.013 164L699.08 164.437L724.545 43.9034L722.477 43.4665L720.409 43.0296L694.945 163.563L697.013 164ZM722.477 43.4665V45.5801H743.358V43.4665V41.3529H722.477V43.4665ZM743.358 43.4665L741.291 43.0296L715.826 163.563L717.894 164L719.962 164.437L745.426 43.9034L743.358 43.4665ZM789.212 133.442L791.272 133.917L791.279 133.887L791.285 133.857L789.212 133.442ZM790.571 126.652V124.538H788.838L788.498 126.237L790.571 126.652ZM811.621 126.652L813.69 127.087L814.226 124.538H811.621V126.652ZM808.905 139.554L806.837 139.118L806.836 139.123L808.905 139.554ZM739.471 139.554L737.402 139.121L737.402 139.123L739.471 139.554ZM741.848 128.179V126.066H740.13L739.779 127.747L741.848 128.179ZM742.018 128.179V130.293H743.727L744.084 128.622L742.018 128.179ZM754.92 67.9127L756.987 68.3552L756.989 68.3438L754.92 67.9127ZM824.184 67.9127L826.25 68.3594L826.252 68.3516L826.253 68.3438L824.184 67.9127ZM821.468 80.4754V82.589H823.173L823.534 80.922L821.468 80.4754ZM800.417 80.4754L798.349 80.0399L797.812 82.589H800.417V80.4754ZM801.775 74.0243L803.843 74.4597L803.846 74.449L801.775 74.0243ZM774.443 74.0243L776.511 74.4615L776.511 74.4597L774.443 74.0243ZM761.88 133.442L763.94 133.917L763.944 133.898L763.948 133.879L761.88 133.442ZM766.124 142.949V145.063H780.894V142.949V140.835H766.124V142.949ZM780.894 142.949V145.063C783.577 145.063 785.871 144.113 787.661 142.072C789.358 140.137 790.477 137.361 791.272 133.917L789.212 133.442L787.153 132.967C786.42 136.145 785.502 138.122 784.482 139.285C783.556 140.342 782.454 140.835 780.894 140.835V142.949ZM789.212 133.442L791.285 133.857L792.643 127.066L790.571 126.652L788.498 126.237L787.14 133.028L789.212 133.442ZM790.571 126.652V128.765H811.621V126.652V124.538H790.571V126.652ZM811.621 126.652L809.553 126.216L806.837 139.118L808.905 139.554L810.973 139.989L813.69 127.087L811.621 126.652ZM808.905 139.554L806.836 139.123C805.187 147.039 802.435 152.706 798.701 156.382C795.018 160.009 790.19 161.886 783.95 161.886V164V166.114C791.121 166.114 797.073 163.917 801.666 159.395C806.208 154.923 809.228 148.366 810.974 139.985L808.905 139.554ZM783.95 164V161.886H760.183V164V166.114H783.95V164ZM760.183 164V161.886C751.584 161.886 746.351 159.889 743.556 156.535C740.774 153.197 739.893 147.89 741.54 139.985L739.471 139.554L737.402 139.123C735.654 147.515 736.301 154.431 740.309 159.242C744.305 164.037 751.125 166.114 760.183 166.114V164ZM739.471 139.554L741.54 139.986L743.917 128.612L741.848 128.179L739.779 127.747L737.402 139.121L739.471 139.554ZM741.848 128.179V130.293H742.018V128.179V126.066H741.848V128.179ZM742.018 128.179L744.084 128.622L756.987 68.3552L754.92 67.9127L752.853 67.4703L739.951 127.737L742.018 128.179ZM754.92 67.9127L756.989 68.3438C758.642 60.408 761.316 54.7465 765.005 51.0765C768.636 47.4641 773.454 45.5801 779.875 45.5801V43.4665V41.3529C772.546 41.3529 766.584 43.5433 762.024 48.0796C757.521 52.5583 754.593 59.1199 752.851 67.4816L754.92 67.9127ZM779.875 43.4665V45.5801H803.473V43.4665V41.3529H779.875V43.4665ZM803.473 43.4665V45.5801C812.071 45.5801 817.304 47.5778 820.099 50.9311C822.881 54.2697 823.762 59.5767 822.115 67.4816L824.184 67.9127L826.253 68.3438C828.002 59.9513 827.355 53.0352 823.346 48.225C819.35 43.4296 812.53 41.3529 803.473 41.3529V43.4665ZM824.184 67.9127L822.118 67.466L819.402 80.0287L821.468 80.4754L823.534 80.922L826.25 68.3594L824.184 67.9127ZM821.468 80.4754V78.3618H800.417V80.4754V82.589H821.468V80.4754ZM800.417 80.4754L802.485 80.9108L803.843 74.4597L801.775 74.0243L799.707 73.5889L798.349 80.0399L800.417 80.4754ZM801.775 74.0243L803.846 74.449C804.539 71.0708 804.674 68.1164 803.68 65.9174C803.148 64.7415 802.307 63.8117 801.168 63.2059C800.068 62.6202 798.816 62.4038 797.531 62.4038V64.5174V66.631C798.368 66.631 798.878 66.7754 799.183 66.9377C799.45 67.08 799.659 67.2855 799.828 67.6587C800.234 68.5579 800.37 70.3569 799.705 73.5996L801.775 74.0243ZM797.531 64.5174V62.4038H782.761V64.5174V66.631H797.531V64.5174ZM782.761 64.5174V62.4038C780.054 62.4038 777.727 63.4127 775.932 65.4568C774.212 67.4148 773.089 70.1944 772.375 73.5889L774.443 74.0243L776.511 74.4597C777.155 71.4031 778.069 69.4292 779.108 68.2465C780.071 67.15 781.224 66.631 782.761 66.631V64.5174ZM774.443 74.0243L772.375 73.5871L759.812 133.005L761.88 133.442L763.948 133.879L776.511 74.4615L774.443 74.0243ZM761.88 133.442L759.821 132.967C759.029 136.399 758.932 139.374 759.996 141.592C761.193 144.089 763.542 145.063 766.124 145.063V142.949V140.835C764.632 140.835 764.096 140.366 763.807 139.765C763.385 138.885 763.204 137.106 763.94 133.917L761.88 133.442ZM872.525 133.272L870.457 132.835L870.454 132.848L872.525 133.272ZM891.539 43.4665V41.3529H889.826L889.471 43.0287L891.539 43.4665ZM912.589 43.4665L914.657 43.9059L915.2 41.3529H912.589V43.4665ZM891.878 140.912L889.811 140.472L889.809 140.48L891.878 140.912ZM822.274 140.912L820.207 140.472L820.205 140.48L822.274 140.912ZM842.986 43.4665V41.3529H841.274L840.918 43.0271L842.986 43.4665ZM864.037 43.4665L866.104 43.9043L866.644 41.3529H864.037V43.4665ZM845.023 133.272L842.955 132.835L842.952 132.848L845.023 133.272ZM864.376 142.949V145.063C867.094 145.063 869.395 144.044 871.151 141.953C872.818 139.969 873.887 137.148 874.595 133.697L872.525 133.272L870.454 132.848C869.804 136.018 868.921 138.035 867.914 139.234C866.997 140.326 865.902 140.835 864.376 140.835V142.949ZM872.525 133.272L874.593 133.71L893.606 43.9043L891.539 43.4665L889.471 43.0287L870.457 132.835L872.525 133.272ZM891.539 43.4665V45.5801H912.589V43.4665V41.3529H891.539V43.4665ZM912.589 43.4665L910.522 43.0271L889.811 140.472L891.878 140.912L893.945 141.351L914.657 43.9059L912.589 43.4665ZM891.878 140.912L889.809 140.48C888.24 147.996 885.734 153.322 882.316 156.759C878.958 160.135 874.524 161.886 868.62 161.886V164V166.114C875.449 166.114 881.031 164.045 885.313 159.74C889.534 155.495 892.291 149.276 893.947 141.344L891.878 140.912ZM868.62 164V161.886H841.797V164V166.114H868.62V164ZM841.797 164V161.886C833.705 161.886 828.813 160.015 826.21 156.895C823.621 153.792 822.781 148.826 824.343 141.344L822.274 140.912L820.205 140.48C818.542 148.446 819.145 155.025 822.964 159.603C826.771 164.166 833.252 166.114 841.797 166.114V164ZM822.274 140.912L824.342 141.351L845.053 43.9059L842.986 43.4665L840.918 43.0271L820.207 140.472L822.274 140.912ZM842.986 43.4665V45.5801H864.037V43.4665V41.3529H842.986V43.4665ZM864.037 43.4665L861.969 43.0287L842.955 132.835L845.023 133.272L847.091 133.71L866.104 43.9043L864.037 43.4665ZM845.023 133.272L842.952 132.848C842.257 136.238 842.129 139.217 843.109 141.445C843.631 142.63 844.459 143.585 845.597 144.216C846.703 144.83 847.965 145.063 849.267 145.063V142.949V140.835C848.447 140.835 847.948 140.687 847.648 140.52C847.38 140.371 847.158 140.149 846.979 139.742C846.558 138.787 846.431 136.928 847.093 133.697L845.023 133.272ZM849.267 142.949V145.063H864.376V142.949V140.835H849.267V142.949ZM950.333 43.4665L952.401 43.904L952.941 41.3529H950.333V43.4665ZM929.282 142.949L927.214 142.512L926.675 145.063H929.282V142.949ZM967.14 142.949L969.137 143.642L970.11 140.835H967.14V142.949ZM959.84 164V166.114H961.344L961.837 164.692L959.84 164ZM903.987 164L901.919 163.563L901.38 166.114H903.987V164ZM929.452 43.4665V41.3529H927.738L927.384 43.0296L929.452 43.4665ZM950.333 43.4665L948.265 43.0289L927.214 142.512L929.282 142.949L931.35 143.387L952.401 43.904L950.333 43.4665ZM929.282 142.949V145.063H967.14V142.949V140.835H929.282V142.949ZM967.14 142.949L965.143 142.257L957.843 163.308L959.84 164L961.837 164.692L969.137 143.642L967.14 142.949ZM959.84 164V161.886H903.987V164V166.114H959.84V164ZM903.987 164L906.055 164.437L931.52 43.9034L929.452 43.4665L927.384 43.0296L901.919 163.563L903.987 164ZM929.452 43.4665V45.5801H950.333V43.4665V41.3529H929.452V43.4665ZM1022.77 43.4665V41.3529H1021.43L1020.86 42.5602L1022.77 43.4665ZM1043.48 43.4665L1045.59 43.3535L1045.49 41.3529H1043.48V43.4665ZM1049.93 164V166.114H1052.16L1052.04 163.887L1049.93 164ZM1028.03 164L1025.92 164.052L1025.97 166.114H1028.03V164ZM1027.52 143.458L1029.64 143.406L1029.59 141.345H1027.52V143.458ZM996.288 143.458V141.345H994.906L994.352 142.61L996.288 143.458ZM987.29 164V166.114H988.672L989.226 164.848L987.29 164ZM965.56 164L963.651 163.094L962.217 166.114H965.56V164ZM1026.51 76.0615L1028.62 76.0304L1024.58 75.1965L1026.51 76.0615ZM1005.79 122.238L1003.87 121.373L1002.53 124.351H1005.79V122.238ZM1027.19 122.238V124.351H1029.33L1029.3 122.207L1027.19 122.238ZM1022.77 43.4665V45.5801H1043.48V43.4665V41.3529H1022.77V43.4665ZM1043.48 43.4665L1041.37 43.5794L1047.82 164.113L1049.93 164L1052.04 163.887L1045.59 43.3535L1043.48 43.4665ZM1049.93 164V161.886H1028.03V164V166.114H1049.93V164ZM1028.03 164L1030.15 163.948L1029.64 143.406L1027.52 143.458L1025.41 143.511L1025.92 164.052L1028.03 164ZM1027.52 143.458V141.345H996.288V143.458V145.572H1027.52V143.458ZM996.288 143.458L994.352 142.61L985.354 163.152L987.29 164L989.226 164.848L998.224 144.306L996.288 143.458ZM987.29 164V161.886H965.56V164V166.114H987.29V164ZM965.56 164L967.47 164.906L1024.68 44.3728L1022.77 43.4665L1020.86 42.5602L963.651 163.094L965.56 164ZM1026.51 76.0615L1024.58 75.1965L1003.87 121.373L1005.79 122.238L1007.72 123.103L1028.43 76.9265L1026.51 76.0615ZM1005.79 122.238V124.351H1027.19V122.238V120.124H1005.79V122.238ZM1027.19 122.238L1029.3 122.207L1028.62 76.0304L1026.51 76.0615L1024.39 76.0925L1025.07 122.269L1027.19 122.238ZM1059.49 164L1057.42 163.563L1056.88 166.114H1059.49V164ZM1084.95 43.4665V41.3529H1083.24L1082.89 43.0296L1084.95 43.4665ZM1148.62 66.3848L1146.55 65.9263L1146.55 65.9295L1148.62 66.3848ZM1140.98 101.017L1138.91 100.562L1138.91 100.58L1138.9 100.598L1140.98 101.017ZM1120.6 123.766L1120.41 121.661L1117.77 121.909L1118.6 124.426L1120.6 123.766ZM1133.85 164V166.114H1136.77L1135.85 163.339L1133.85 164ZM1109.91 164L1107.9 164.656L1108.38 166.114H1109.91V164ZM1096.84 123.935L1098.85 123.28L1098.37 121.822H1096.84V123.935ZM1088.86 123.935V121.822H1087.15L1086.79 123.497L1088.86 123.935ZM1080.37 164V166.114H1082.08L1082.44 164.438L1080.37 164ZM1101.42 64.5174V62.4038H1099.71L1099.35 64.0783L1101.42 64.5174ZM1093.27 102.884L1091.2 102.445L1090.66 104.998H1093.27V102.884ZM1121.79 93.3775L1119.72 92.9421L1119.72 92.9528L1121.79 93.3775ZM1125.87 74.0243L1127.93 74.4597V74.4597L1125.87 74.0243ZM1059.49 164L1061.56 164.437L1087.02 43.9034L1084.95 43.4665L1082.89 43.0296L1057.42 163.563L1059.49 164ZM1084.95 43.4665V45.5801H1129.09V43.4665V41.3529H1084.95V43.4665ZM1129.09 43.4665V45.5801C1137.28 45.5801 1142.21 47.4559 1144.81 50.5545C1147.39 53.626 1148.19 58.5343 1146.55 65.9263L1148.62 66.3848L1150.68 66.8433C1152.43 58.9564 1151.88 52.4056 1148.05 47.8377C1144.24 43.2968 1137.71 41.3529 1129.09 41.3529V43.4665ZM1148.62 66.3848L1146.55 65.9295L1138.91 100.562L1140.98 101.017L1143.04 101.472L1150.68 66.8401L1148.62 66.3848ZM1140.98 101.017L1138.9 100.598C1137.5 107.517 1135.24 112.551 1132.21 115.949C1129.22 119.295 1125.35 121.197 1120.41 121.661L1120.6 123.766L1120.8 125.87C1126.72 125.315 1131.6 122.974 1135.36 118.765C1139.07 114.609 1141.56 108.777 1143.05 101.436L1140.98 101.017ZM1120.6 123.766L1118.6 124.426L1131.84 164.661L1133.85 164L1135.85 163.339L1122.61 123.105L1120.6 123.766ZM1133.85 164V161.886H1109.91V164V166.114H1133.85V164ZM1109.91 164L1111.92 163.344L1098.85 123.28L1096.84 123.935L1094.83 124.591L1107.9 164.656L1109.91 164ZM1096.84 123.935V121.822H1088.86V123.935V126.049H1096.84V123.935ZM1088.86 123.935L1086.79 123.497L1078.3 163.562L1080.37 164L1082.44 164.438L1090.93 124.373L1088.86 123.935ZM1080.37 164V161.886H1059.49V164V166.114H1080.37V164ZM1101.42 64.5174L1099.35 64.0783L1091.2 102.445L1093.27 102.884L1095.34 103.324L1103.49 64.9565L1101.42 64.5174ZM1093.27 102.884V104.998H1113.64V102.884V100.771H1093.27V102.884ZM1113.64 102.884V104.998C1116.26 104.998 1118.55 104.038 1120.33 102.007C1122.03 100.066 1123.15 97.2806 1123.86 93.8023L1121.79 93.3775L1119.72 92.9528C1119.08 96.0954 1118.16 98.0639 1117.15 99.2205C1116.21 100.288 1115.1 100.771 1113.64 100.771V102.884ZM1121.79 93.3775L1123.86 93.813L1127.93 74.4597L1125.87 74.0243L1123.8 73.5889L1119.72 92.9421L1121.79 93.3775ZM1125.87 74.0243L1127.93 74.4597C1128.63 71.1419 1128.76 68.2133 1127.81 66.0128C1127.3 64.846 1126.5 63.8939 1125.39 63.2597C1124.3 62.6416 1123.06 62.4038 1121.79 62.4038V64.5174V66.631C1122.56 66.631 1123.02 66.7752 1123.29 66.9317C1123.54 67.072 1123.75 67.287 1123.93 67.6906C1124.33 68.6307 1124.46 70.4555 1123.8 73.5889L1125.87 74.0243ZM1121.79 64.5174V62.4038H1101.42V64.5174V66.631H1121.79V64.5174Z" fill="#D4B864" mask="url(#path-6-outside-2_15_49)"/>
</g>
<g clip-path="url(#clip0_15_49)">
<g filter="url(#filter5_d_15_49)">
<path d="M8.87979 53.4131L58.2468 19.673V54.1234L54.6953 57.675L21.3103 58.0301C17.7588 58.0301 12.7865 62.2921 12.7865 65.4885V119.827C13.7478 133.858 17.5327 140.921 31.2548 151.792C45.4268 163.019 71.7428 178.429 71.7428 178.429V191.214L33.7409 166.708C12.5788 151.719 5.66133 141.589 3.90758 119.827L3.19727 63.3575C3.19727 63.3575 3.31019 60.0344 4.26274 58.0301C5.1927 56.0733 8.87979 53.4131 8.87979 53.4131Z" fill="url(#paint3_linear_15_49)" stroke="white" stroke-width="0.710317"/>
<path d="M80.2663 134.034L137.092 78.6294L78.8456 154.633L56.4707 131.548L66.4151 120.538L80.2663 134.034Z" fill="url(#paint4_linear_15_49)" stroke="#F3E3A2" stroke-width="0.710317"/>
<path d="M85.9486 75.0778H28.4129C27.0398 75.0778 25.9268 76.1908 25.9268 77.5639V78.9845C25.9268 80.3575 27.0398 81.4706 28.4129 81.4706H85.9486C87.3216 81.4706 88.4347 80.3575 88.4347 78.9845V77.5639C88.4347 76.1908 87.3216 75.0778 85.9486 75.0778Z" fill="#D9D9D9" stroke="white" stroke-width="0.710317"/>
<path d="M70.322 92.125H27.7029C26.3299 92.125 25.2168 93.2381 25.2168 94.6111V96.0317C25.2168 97.4048 26.3299 98.5179 27.7029 98.5179H70.322C71.695 98.5179 72.8081 97.4048 72.8081 96.0317V94.6111C72.8081 93.2381 71.695 92.125 70.322 92.125Z" fill="#D9D9D9" stroke="white" stroke-width="0.710317"/>
<path d="M54.695 108.462H27.7029C26.3299 108.462 25.2168 109.575 25.2168 110.949V112.369C25.2168 113.742 26.3299 114.855 27.7029 114.855H54.695C56.068 114.855 57.1811 113.742 57.1811 112.369V110.949C57.1811 109.575 56.068 108.462 54.695 108.462Z" fill="#D9D9D9" stroke="white" stroke-width="0.710317"/>
<path d="M118.979 154.278L83.1077 176.298V189.083L118.979 167.064C130.489 159.568 136.031 154.716 143.485 144.333C150.768 133.679 152.855 123.644 153.784 110.238V40.6273C138.512 31.038 100.866 21.4486 92.3418 20.0281C90.2109 19.6729 84.5283 18.9626 80.6216 20.0281C76.7148 21.0936 67.8359 25.3555 67.8359 25.3555V36.3654C67.8359 36.3654 82.0422 29.9725 84.8835 29.9725C87.7248 29.9725 121.907 38.2718 143.485 47.7305L142.774 110.238C140.828 129.392 136.205 141.545 118.979 154.278Z" fill="url(#paint5_linear_15_49)" stroke="#F3E3A2" stroke-width="0.710317"/>
</g>
</g>
<defs>
<filter id="filter0_f_15_49" x="149.86" y="24.1819" width="1016.05" height="161.424" filterUnits="userSpaceOnUse" color-interpolation-filters="sRGB">
<feFlood flood-opacity="0" result="BackgroundImageFix"/>
<feBlend mode="normal" in="SourceGraphic" in2="BackgroundImageFix" result="shape"/>
<feGaussianBlur stdDeviation="9.45" result="effect1_foregroundBlur_15_49"/>
</filter>
<filter id="filter1_d_15_49" x="164.269" y="43.0819" width="383.459" height="132.606" filterUnits="userSpaceOnUse" color-interpolation-filters="sRGB">
<feFlood flood-opacity="0" result="BackgroundImageFix"/>
<feColorMatrix in="SourceAlpha" type="matrix" values="0 0 0 0 0 0 0 0 0 0 0 0 0 0 0 0 0 0 127 0" result="hardAlpha"/>
<feOffset dy="4.49121"/>
<feGaussianBlur stdDeviation="2.2456"/>
<feComposite in2="hardAlpha" operator="out"/>
<feColorMatrix type="matrix" values="0 0 0 0 0 0 0 0 0 0 0 0 0 0 0 0 0 0 0.25 0"/>
<feBlend mode="normal" in2="BackgroundImageFix" result="effect1_dropShadow_15_49"/>
<feBlend mode="normal" in="SourceGraphic" in2="effect1_dropShadow_15_49" result="shape"/>
</filter>
<filter id="filter2_d_15_49" x="550.647" y="43.7638" width="600.591" height="128.988" filterUnits="userSpaceOnUse" color-interpolation-filters="sRGB">
<feFlood flood-opacity="0" result="BackgroundImageFix"/>
<feColorMatrix in="SourceAlpha" type="matrix" values="0 0 0 0 0 0 0 0 0 0 0 0 0 0 0 0 0 0 127 0" result="hardAlpha"/>
<feOffset dy="4.22718"/>
<feGaussianBlur stdDeviation="2.11359"/>
<feComposite in2="hardAlpha" operator="out"/>
<feColorMatrix type="matrix" values="0 0 0 0 0 0 0 0 0 0 0 0 0 0 0 0 0 0 0.25 0"/>
<feBlend mode="normal" in2="BackgroundImageFix" result="effect1_dropShadow_15_49"/>
<feBlend mode="normal" in="SourceGraphic" in2="effect1_dropShadow_15_49" result="shape"/>
</filter>
<filter id="filter3_d_15_49" x="171.313" y="41.9591" width="382.808" height="134.852" filterUnits="userSpaceOnUse" color-interpolation-filters="sRGB">
<feFlood flood-opacity="0" result="BackgroundImageFix"/>
<feColorMatrix in="SourceAlpha" type="matrix" values="0 0 0 0 0 0 0 0 0 0 0 0 0 0 0 0 0 0 127 0" result="hardAlpha"/>
<feOffset dy="4.49121"/>
<feGaussianBlur stdDeviation="2.2456"/>
<feComposite in2="hardAlpha" operator="out"/>
<feColorMatrix type="matrix" values="0 0 0 0 0 0 0 0 0 0 0 0 0 0 0 0 0 0 0.25 0"/>
<feBlend mode="normal" in2="BackgroundImageFix" result="effect1_dropShadow_15_49"/>
<feBlend mode="normal" in="SourceGraphic" in2="effect1_dropShadow_15_49" result="shape"/>
</filter>
<filter id="filter4_d_15_49" x="553.494" y="41.3529" width="602.365" height="133.215" filterUnits="userSpaceOnUse" color-interpolation-filters="sRGB">
<feFlood flood-opacity="0" result="BackgroundImageFix"/>
<feColorMatrix in="SourceAlpha" type="matrix" values="0 0 0 0 0 0 0 0 0 0 0 0 0 0 0 0 0 0 127 0" result="hardAlpha"/>
<feOffset dy="4.22718"/>
<feGaussianBlur stdDeviation="2.11359"/>
<feComposite in2="hardAlpha" operator="out"/>
<feColorMatrix type="matrix" values="0 0 0 0 0 0 0 0 0 0 0 0 0 0 0 0 0 0 0.25 0"/>
<feBlend mode="normal" in2="BackgroundImageFix" result="effect1_dropShadow_15_49"/>
<feBlend mode="normal" in="SourceGraphic" in2="effect1_dropShadow_15_49" result="shape"/>
</filter>
<filter id="filter5_d_15_49" x="0.000527382" y="19" width="156.98" height="178.549" filterUnits="userSpaceOnUse" color-interpolation-filters="sRGB">
<feFlood flood-opacity="0" result="BackgroundImageFix"/>
<feColorMatrix in="SourceAlpha" type="matrix" values="0 0 0 0 0 0 0 0 0 0 0 0 0 0 0 0 0 0 127 0" result="hardAlpha"/>
<feOffset dy="2.84127"/>
<feGaussianBlur stdDeviation="1.42063"/>
<feComposite in2="hardAlpha" operator="out"/>
<feColorMatrix type="matrix" values="0 0 0 0 0 0 0 0 0 0 0 0 0 0 0 0 0 0 0.25 0"/>
<feBlend mode="normal" in2="BackgroundImageFix" result="effect1_dropShadow_15_49"/>
<feBlend mode="normal" in="SourceGraphic" in2="effect1_dropShadow_15_49" result="shape"/>
</filter>
<linearGradient id="paint0_linear_15_49" x1="180.108" y1="177.5" x2="1152.11" y2="177.5" gradientUnits="userSpaceOnUse">
<stop offset="0.35579" stop-color="#D4B864"/>
<stop offset="0.648374" stop-color="white" stop-opacity="0.8"/>
</linearGradient>
<linearGradient id="paint1_linear_15_49" x1="374.158" y1="8.43108" x2="403.725" y2="275.234" gradientUnits="userSpaceOnUse">
<stop offset="0.349299" stop-color="#E9ECEC"/>
<stop offset="0.754085" stop-color="#5B5959"/>
</linearGradient>
<linearGradient id="paint2_linear_15_49" x1="846.199" y1="78.6418" x2="846.199" y2="138.937" gradientUnits="userSpaceOnUse">
<stop stop-color="#F3C450"/>
<stop offset="1" stop-color="#B06A12"/>
</linearGradient>
<linearGradient id="paint3_linear_15_49" x1="31.9651" y1="35.0924" x2="54.6953" y2="191.362" gradientUnits="userSpaceOnUse">
<stop stop-color="#F7F7F7"/>
<stop offset="1" stop-color="#CFCFCF"/>
</linearGradient>
<linearGradient id="paint4_linear_15_49" x1="127.502" y1="75.433" x2="76.3595" y2="151.792" gradientUnits="userSpaceOnUse">
<stop stop-color="#F1BB40"/>
<stop offset="1" stop-color="#B67211"/>
</linearGradient>
<linearGradient id="paint5_linear_15_49" x1="110.81" y1="19.4653" x2="110.81" y2="189.083" gradientUnits="userSpaceOnUse">
<stop stop-color="#F8C446"/>
<stop offset="1" stop-color="#B16C0E"/>
</linearGradient>
<clipPath id="clip0_15_49">
<rect width="156.98" height="179" fill="white" transform="translate(0 19)"/>
</clipPath>
</defs>
</svg>
